:FULLY-SPECIFIED
:FORCE-ALL-JOINTS-BE-3DOF
:DEGREES
815
root 1.79629 16.6513 22.2248 4.67265 -3.49003 -6.47949
lfemur -37.1416 -3.20843 2.06068
ltibia 23.5911 -0 0
lfoot -9.33386 8.44779 0.562438
ltoes 16.3799 -0 0
rfemur 2.70232 6.07725 21.6039
rtibia 21.7363 -0 0
rfoot -22.0308 -10.7811 0.0579073
rtoes -24.4302 0 0
lowerback 0.335901 6.42619 5.78671
upperback -0.226748 8.59169 -0.127914
thorax 0.442483 4.29992 -3.24648
lowerneck -5.65712 -1.61412 3.06685
upperneck 0.058621 -2.37359 1.33977
head 0.924859 -1.16007 -0.159946
lclavicle -9.79014e-14 3.18055e-15 0
lhumerus -53.7014 -6.26119 90.697
lradius 54.2521 -0 0
lwrist 20.8721 0 0
lhand -7.57805 6.02778 -0.0907756
lfingers 7.12502 -0 0
lthumb 18.316 35.2014 -0.0856171
rclavicle -9.79014e-14 3.18055e-15 0
rhumerus -31.2023 44.9138 -110.295
rradius 67.4145 -0 0
rwrist -1.54303 0 0
rhand -9.87384 -24.4998 0.199954
rfingers 7.12502 -0 0
rthumb 16.1012 -53.7734 0.207559
816
root 1.84595 16.6386 22.3923 4.70224 -4.23476 -6.73419
lfemur -36.8583 -2.80457 2.55612
ltibia 21.8993 -0 0
lfoot -8.8678 9.8275 0.465561
ltoes 16.9499 -0 0
rfemur 3.52154 6.36512 21.767
rtibia 20.9086 -0 0
rfoot -21.9021 -10.9695 0.047408
rtoes -24.7809 0 0
lowerback 0.260936 6.53383 5.86979
upperback -0.240695 8.7315 -0.0742679
thorax 0.486577 4.37076 -3.2263
lowerneck -5.62398 -1.54357 3.15003
upperneck 0.114738 -2.28431 1.31387
head 0.937267 -1.11501 -0.178908
lclavicle -9.79014e-14 3.18055e-15 0
lhumerus -53.6196 -6.20323 90.6285
lradius 53.6555 -0 0
lwrist 20.3859 0 0
lhand -7.40654 5.98182 -0.0794469
lfingers 7.12502 -0 0
lthumb 18.4809 35.1389 -0.0746591
rclavicle -9.79014e-14 3.18055e-15 0
rhumerus -30.8483 44.9507 -109.88
rradius 67.2408 -0 0
rwrist -1.80252 0 0
rhand -9.18453 -24.1074 0.16721
rfingers 7.12502 -0 0
rthumb 16.7658 -53.3425 0.172852
817
root 1.90473 16.6246 22.5887 4.7143 -4.71637 -6.97461
lfemur -36.5803 -2.36392 2.98271
ltibia 20.3557 -0 0
lfoot -8.46198 11.1812 0.357217
ltoes 17.5064 -0 0
rfemur 4.25728 6.55635 21.9138
rtibia 20.1992 -0 0
rfoot -21.7715 -11.2137 0.0361431
rtoes -25.1132 0 0
lowerback 0.191063 6.6322 5.93047
upperback -0.256413 8.85914 -0.0332392
thorax 0.523867 4.43546 -3.20769
lowerneck -5.59169 -1.49019 3.21909
upperneck 0.161456 -2.21687 1.29991
head 0.947671 -1.08066 -0.192159
lclavicle -9.79014e-14 3.18055e-15 0
lhumerus -53.5461 -6.16205 90.5731
lradius 53.1282 -0 0
lwrist 19.8968 0 0
lhand -7.27546 5.90671 -0.0647516
lfingers 7.12502 -0 0
lthumb 18.6069 35.0499 -0.0606293
rclavicle -9.79014e-14 3.18055e-15 0
rhumerus -30.5047 44.9937 -109.486
rradius 67.1081 -0 0
rwrist -2.02971 0 0
rhand -8.56016 -23.7203 0.129627
rfingers 7.12502 -0 0
rthumb 17.3676 -52.9203 0.133399
818
root 1.97347 16.6092 22.8177 4.70552 -4.9144 -7.19719
lfemur -36.3108 -1.88738 3.33251
ltibia 18.9834 -0 0
lfoot -8.12371 12.4955 0.240893
ltoes 18.0438 -0 0
rfemur 4.89702 6.64411 22.0396
rtibia 19.6218 -0 0
rfoot -21.64 -11.5152 0.0243383
rtoes -25.423 0 0
lowerback 0.127138 6.7198 5.96686
upperback -0.273939 8.97271 -0.00598304
thorax 0.553591 4.49307 -3.19096
lowerneck -5.56064 -1.4555 3.27254
upperneck 0.19781 -2.17325 1.2987
head 0.955864 -1.05798 -0.199234
lclavicle -9.79014e-14 3.18055e-15 0
lhumerus -53.4819 -6.13912 90.532
lradius 52.6791 -0 0
lwrist 19.4091 0 0
lhand -7.18848 5.8013 -0.0466029
lfingers 7.12502 -0 0
lthumb 18.6903 34.9334 -0.0434801
rclavicle -9.79014e-14 3.18055e-15 0
rhumerus -30.1751 45.0431 -109.117
rradius 67.0203 -0 0
rwrist -2.22056 0 0
rhand -8.01028 -23.3421 0.0883393
rfingers 7.12502 -0 0
rthumb 17.8976 -52.511 0.0904626
819
root 2.053 16.5926 23.0832 4.67264 -4.80839 -7.39863
lfemur -36.0537 -1.37572 3.59747
ltibia 17.805 -0 0
lfoot -7.86014 13.757 0.12045
ltoes 18.5561 -0 0
rfemur 5.42831 6.62161 22.1395
rtibia 19.1898 -0 0
rfoot -21.5087 -11.8753 0.0122179
rtoes -25.7063 0 0
lowerback 0.0700225 6.79512 5.97707
upperback -0.293305 9.07033 0.00634867
thorax 0.574986 4.54266 -3.17638
lowerneck -5.53123 -1.44102 3.30887
upperneck 0.222824 -2.15541 1.31107
head 0.961637 -1.04794 -0.199665
lclavicle -9.79014e-14 3.18055e-15 0
lhumerus -53.4283 -6.13586 90.5065
lradius 52.3171 -0 0
lwrist 18.9268 0 0
lhand -7.1493 5.66443 -0.0249915
lfingers 7.12502 -0 0
lthumb 18.7277 34.7886 -0.023235
rclavicle -9.79014e-14 3.18055e-15 0
rhumerus -29.8631 45.0995 -108.777
rradius 66.9811 -0 0
rwrist -2.37108 0 0
rhand -7.54446 -22.9765 0.0446513
rfingers 7.12502 -0 0
rthumb 18.3466 -52.1189 0.0454763
820
root 2.14416 16.5748 23.3889 4.61266 -4.37788 352.424
lfemur -35.8129 -0.829675 3.76948
ltibia 16.8436 0 0
lfoot -7.6782 14.9523 0
ltoes 19.0378 0 0
rfemur 5.83887 6.48206 22.2095
rtibia 18.917 0 0
rfoot -21.3786 -12.2951 0
rtoes -25.9589 0 0
lowerback 0.0205861 6.85666 5.95921
upperback -0.314538 9.1501 0.00260752
thorax 0.58729 4.58326 -3.16423
lowerneck -5.50381 -1.44827 3.32656
upperneck 0.235501 -2.16531 1.33786
head 0.964776 -1.05151 -0.192986
lclavicle -2.48481e-16 0 0
lhumerus -53.3862 -6.15374 90.498
lradius 52.0513 0 0
lwrist 18.4542 0 0
lhand -7.16163 5.49493 0
lfingers 7.12502 0 0
lthumb 18.7154 34.6146 0
rclavicle -2.48481e-16 0 0
rhumerus -29.5725 45.1631 -108.471
rradius 66.9941 0 0
rwrist -2.47723 0 0
rhand -7.17223 -22.6272 0
rfingers 7.12502 0 0
rthumb 18.7052 -771.748 0
821
root 2.23797 16.556 23.6984 4.41539 -5.00907 -7.56311
lfemur -35.5114 -0.771324 3.6648
ltibia 16.5234 -0 0
lfoot -7.31488 14.8231 -0.0679308
ltoes 18.6752 -0 0
rfemur 5.80472 6.45309 21.7788
rtibia 19.9159 -0 0
rfoot -20.1212 -11.5369 0.290708
rtoes -26.0355 0 0
lowerback -0.0458187 6.87195 5.89621
upperback -0.326139 9.16612 0.0689361
thorax 0.596519 4.5908 -3.0577
lowerneck -5.51151 -1.44799 3.37198
upperneck 0.501162 -2.17417 1.3082
head 1.05232 -1.05207 -0.214993
lclavicle -2.48481e-16 0 0
lhumerus -53.4001 -6.04739 90.3239
lradius 51.7761 -0 0
lwrist 18.2754 0 0
lhand -6.97157 5.50878 -0.00253316
lfingers 7.12502 -0 0
lthumb 18.8983 34.6124 -0.00205641
rclavicle -2.48481e-16 0 0
rhumerus -29.3836 44.5872 -107.377
rradius 66.5529 -0 0
rwrist -2.366 0 0
rhand -7.50603 -22.5669 -0.00128871
rfingers 7.12502 -0 0
rthumb 18.3829 -51.6907 0.000980985
822
root 2.3253 16.5365 23.975 4.15612 -5.54751 -7.51101
lfemur -35.1777 -0.714329 3.44257
ltibia 16.3924 -0 0
lfoot -6.95098 14.5097 -0.134202
ltoes 18.1642 -0 0
rfemur 5.62852 6.33011 21.221
rtibia 21.2976 -0 0
rfoot -18.585 -10.6132 0.625389
rtoes -26.0826 0 0
lowerback -0.116743 6.87391 5.79697
upperback -0.340175 9.16417 0.137217
thorax 0.599191 4.58913 -2.93005
lowerneck -5.52494 -1.4652 3.41065
upperneck 0.815774 -2.20731 1.28146
head 1.15728 -1.06381 -0.236627
lclavicle -2.48481e-16 0 0
lhumerus -53.4308 -5.9332 90.1252
lradius 51.5411 -0 0
lwrist 18.1037 0 0
lhand -6.78035 5.51262 -0.00499916
lfingers 7.12502 -0 0
lthumb 19.0823 34.5998 -0.00406894
rclavicle -2.48481e-16 0 0
rhumerus -29.2172 43.8799 -106.107
rradius 66.0543 -0 0
rwrist -2.18352 0 0
rhand -8.02477 -22.5356 0.00293586
rfingers 7.12502 -0 0
rthumb 17.8821 -51.6693 0.00845316
823
root 2.40679 16.5164 24.2218 3.84037 -5.99503 -7.42226
lfemur -34.8166 -0.657818 3.11218
ltibia 16.439 -0 0
lfoot -6.58893 14.0266 -0.196685
ltoes 17.5184 -0 0
rfemur 5.32271 6.11765 20.5496
rtibia 23.0268 -0 0
rfoot -16.7969 -9.53707 0.984914
rtoes -26.102 0 0
lowerback -0.191337 6.86333 5.66462
upperback -0.356412 9.14548 0.206824
thorax 0.595688 4.5789 -2.7836
lowerneck -5.54364 -1.49862 3.44273
upperneck 1.17384 -2.26286 1.2574
head 1.27775 -1.0859 -0.257789
lclavicle -2.48481e-16 0 0
lhumerus -53.477 -5.81261 89.9047
lradius 51.3453 -0 0
lwrist 17.9397 0 0
lhand -6.58945 5.50709 -0.00733854
lfingers 7.12502 -0 0
lthumb 19.266 34.5776 -0.00597655
rclavicle -2.48481e-16 0 0
rhumerus -29.084 43.0546 -104.69
rradius 65.5055 -0 0
rwrist -1.9358 0 0
rhand -8.71247 -22.5318 0.0120723
rfingers 7.12502 -0 0
rthumb 17.2185 -51.6815 0.0216051
824
root 2.48306 16.496 24.442 3.4739 -6.35337 -7.29978
lfemur -34.4328 -0.600922 2.68306
ltibia 16.652 -0 0
lfoot -6.23123 13.3881 -0.253485
ltoes 16.7513 -0 0
rfemur 4.90013 5.81984 19.7787
rtibia 25.0683 -0 0
rfoot -14.7841 -8.32245 1.35002
rtoes -26.0951 0 0
lowerback -0.268734 6.84099 5.50232
upperback -0.374614 9.11122 0.277133
thorax 0.586389 4.56075 -2.62069
lowerneck -5.56715 -1.54697 3.46839
upperneck 1.56986 -2.33897 1.23578
head 1.41182 -1.11752 -0.278385
lclavicle -2.48481e-16 0 0
lhumerus -53.5375 -5.68709 89.6656
lradius 51.1878 -0 0
lwrist 17.7844 0 0
lhand -6.40034 5.49281 -0.00949625
lfingers 7.12502 -0 0
lthumb 19.448 34.5465 -0.00772419
rclavicle -2.48481e-16 0 0
rhumerus -28.9938 42.1255 -103.152
rradius 64.914 -0 0
rwrist -1.62886 0 0
rhand -9.55321 -22.5539 0.0252997
rfingers 7.12502 -0 0
rthumb 16.4072 -51.7254 0.0393776
825
root 2.55477 16.4754 24.639 3.06269 -6.62428 -7.14682
lfemur -34.0309 -0.542836 2.16459
ltibia 17.0196 -0 0
lfoot -5.88046 12.6087 -0.302979
ltoes 15.8762 -0 0
rfemur 4.37384 5.44065 18.9226
rtibia 27.3868 -0 0
rfoot -12.5745 -6.9843 1.70201
rtoes -26.0636 0 0
lowerback -0.348055 6.8077 5.31319
upperback -0.394544 9.06261 0.347521
thorax 0.571667 4.53531 -2.44362
lowerneck -5.59498 -1.60897 3.48782
upperneck 1.99834 -2.43381 1.21633
head 1.55759 -1.15782 -0.29832
lclavicle -2.48481e-16 0 0
lhumerus -53.6112 -5.55809 89.411
lradius 51.0678 -0 0
lwrist 17.6384 0 0
lhand -6.2145 5.47042 -0.0114227
lfingers 7.12502 -0 0
lthumb 19.6267 34.5074 -0.00926386
rclavicle -2.48481e-16 0 0
rhumerus -28.9545 41.1071 -101.519
rradius 64.2873 -0 0
rwrist -1.26873 0 0
rhand -10.531 -22.6004 0.0416371
rfingers 7.12502 -0 0
rthumb 15.4636 -51.7989 0.0605353
826
root 2.62254 16.4548 24.8158 2.61295 -6.8095 -6.96687
lfemur -33.6157 -0.482875 1.56618
ltibia 17.5305 -0 0
lfoot -5.53931 11.7028 -0.343841
ltoes 14.9068 -0 0
rfemur 3.75694 4.98417 17.9959
rtibia 29.9471 -0 0
rfoot -10.1966 -5.53893 2.02342
rtoes -26.0091 0 0
lowerback -0.428414 6.76426 5.10036
upperback -0.415958 9.00083 0.417365
thorax 0.551898 4.50323 -2.25472
lowerneck -5.62667 -1.68335 3.50119
upperneck 2.45376 -2.54555 1.1988
head 1.71315 -1.206 -0.3175
lclavicle -2.48481e-16 0 0
lhumerus -53.6967 -5.42707 89.1438
lradius 50.9842 -0 0
lwrist 17.5026 0 0
lhand -6.03339 5.44055 -0.0130748
lfingers 7.12502 -0 0
lthumb 19.8009 34.4609 -0.0105555
rclavicle -2.48481e-16 0 0
rhumerus -28.9721 40.0142 -99.8164
rradius 63.6327 -0 0
rwrist -0.861431 0 0
rhand -11.63 -22.6697 0.0599984
rfingers 7.12502 -0 0
rthumb 14.4033 -51.9 0.0837341
